<?xml version="1.0" encoding="UTF-8"?>
<svg id="Layer_2" data-name="Layer 2" xmlns="http://www.w3.org/2000/svg" viewBox="0 0 363 76.23">
  <g id="Layer_1-2" data-name="Layer 1">
    <g id="Text">
      <path d="M28.39,44.81h-.79v16.42h-12.6V15h21.39c7.7,0,10.58,3.53,10.58,8.93v11.95c0,4.25-1.73,7.27-6.19,8.42l8.5,16.92h-13.54l-7.34-16.42ZM27.6,24v12.24h4.97c1.22,0,1.8-.5,1.8-1.58v-9.07c0-1.08-.58-1.58-1.8-1.58h-4.97Z" fill="#000" stroke-width="0"/>
      <path d="M76.66,54.32h-11.09l-1.51,6.91h-12.39l11.88-46.23h15.34l11.88,46.23h-12.67l-1.44-6.91ZM74.71,45.39l-3.53-16.63-3.67,16.63h7.2Z" fill="#000" stroke-width="0"/>
      <path d="M111.63,32.28v-7.42c0-1.08-.58-1.58-1.8-1.58h-2.52c-1.22,0-1.8.5-1.8,1.58v26.5c0,1.08.58,1.58,1.8,1.58h2.52c1.22,0,1.8-.5,1.8-1.58v-7.13h12.6v8.07c0,5.4-2.88,8.93-10.58,8.93h-10.15c-7.7,0-10.58-3.53-10.58-8.93v-28.37c0-5.4,2.88-8.93,10.58-8.93h10.15c7.71,0,10.58,3.53,10.58,8.93v8.35h-12.6Z" fill="#000" stroke-width="0"/>
      <path d="M157.27,52.23v9h-28.37V15h27.72v9h-15.12v9.43h13.03v9h-13.03v9.79h15.77Z" fill="#000" stroke-width="0"/>
      <path d="M188.23,24v11.23h13.11v8.28h-13.11v17.71h-12.6V15h27.72v9h-15.12Z" fill="#000" stroke-width="0"/>
      <path d="M228.34,15c7.7,0,10.58,3.53,10.58,8.93v28.37c0,5.4-2.88,8.93-10.58,8.93h-10.66c-7.71,0-10.58-3.53-10.58-8.93v-28.37c0-5.4,2.88-8.93,10.58-8.93h10.66ZM226.32,25.59c0-1.08-.58-1.58-1.8-1.58h-3.02c-1.22,0-1.8.5-1.8,1.58v25.06c0,1.08.58,1.58,1.8,1.58h3.02c1.22,0,1.8-.5,1.8-1.58v-25.06Z" fill="#000" stroke-width="0"/>
      <path d="M262.82,32.28v-7.42c0-1.08-.58-1.58-1.8-1.58h-2.52c-1.22,0-1.8.5-1.8,1.58v26.5c0,1.08.58,1.58,1.8,1.58h2.52c1.22,0,1.8-.5,1.8-1.58v-7.13h12.6v8.07c0,5.4-2.88,8.93-10.58,8.93h-10.15c-7.71,0-10.59-3.53-10.59-8.93v-28.37c0-5.4,2.88-8.93,10.59-8.93h10.15c7.71,0,10.58,3.53,10.58,8.93v8.35h-12.6Z" fill="#000" stroke-width="0"/>
      <path d="M311.93,15v37.3c0,5.4-2.88,8.93-10.58,8.93h-10.66c-7.71,0-10.59-3.53-10.59-8.93V15h12.6v35.64c0,1.08.58,1.58,1.8,1.58h3.02c1.22,0,1.8-.5,1.8-1.58V15h12.6Z" fill="#000" stroke-width="0"/>
      <path d="M335.4,44.09c0-1.08-.58-1.58-1.8-1.58h-6.91c-7.49,0-9.72-3.67-9.72-9.07v-9.5c0-5.4,2.81-8.93,10.51-8.93h9.87c7.7,0,10.51,3.53,10.51,8.93v5.54h-12.6v-3.89c0-1.08-.58-1.58-1.8-1.58h-2.09c-1.22,0-1.8.5-1.8,1.58v6.84c0,1.08.58,1.58,1.8,1.58h6.77c7.49,0,9.87,3.38,9.87,8.79v9.5c0,5.4-2.81,8.93-10.51,8.93h-9.79c-7.7,0-10.58-3.53-10.58-8.93v-5.54h12.6v3.89c0,1.08.58,1.58,1.8,1.58h2.09c1.22,0,1.8-.5,1.8-1.58v-6.55Z" fill="#000" stroke-width="0"/>
    </g>
    <g id="Rectangle">
      <polygon points="363 76.23 0 76.23 0 67.23 363 66.86 363 76.23" fill="#000" stroke-width="0"/>
      <rect width="363" height="9" fill="#000" stroke-width="0"/>
      <polyline points="0 9 9 9 9 67.23 0 67.23" fill="#000" stroke-width="0"/>
      <polyline points="354 8.63 363 8.63 363 66.86 354 66.86" fill="#000" stroke-width="0"/>
    </g>
  </g>
</svg>