<?xml version="1.0" encoding="UTF-8"?>
<svg id="Layer_1" xmlns="http://www.w3.org/2000/svg" viewBox="0 0 128 128">
  <rect width="128" height="128" rx="10" ry="10" fill="#192448"/>
  <g>
    <path d="M43.22,70.7h-.79v16.42h-12.6v-46.23h21.39c7.7,0,10.58,3.53,10.58,8.93v11.95c0,4.25-1.73,7.27-6.19,8.42l8.5,16.92h-13.54l-7.34-16.42ZM42.43,49.89v12.24h4.97c1.22,0,1.8-.5,1.8-1.58v-9.07c0-1.08-.58-1.58-1.8-1.58h-4.97Z" fill="#fff"/>
    <path d="M83.06,49.89v11.23h13.11v8.28h-13.11v17.71h-12.6v-46.23h27.72v9h-15.12Z" fill="#fff"/>
    <polygon points="113.17 102.11 14.83 102.11 14.83 93.11 113.17 92.75 113.17 102.11" fill="#fff"/>
    <rect x="14.83" y="25.89" width="98.35" height="9" fill="#fff"/>
    <polyline points="14.83 34.89 23.83 34.89 23.83 93.11 14.83 93.11" fill="#fff"/>
    <polyline points="104.17 34.52 113.17 34.52 113.17 92.75 104.17 92.75" fill="#fff"/>
  </g>
</svg>